<svg width="35" height="34" viewBox="0 0 35 34" fill="none" xmlns="http://www.w3.org/2000/svg">
<g clip-path="url(#clip0_377_38)">
<g clip-path="url(#clip1_377_38)">
<path d="M24.6611 0.874512H24.9287V0.887207C27.7803 1.02532 30.1201 2.09147 31.7852 3.79443C33.586 5.6365 34.4563 8.07694 34.4531 10.4624C34.4498 12.8479 33.572 15.2841 31.7461 17.1011C30.0757 18.7629 27.7466 19.7693 24.9287 19.8608V19.8657H24.7754C24.5982 19.8694 24.4192 19.8694 24.2383 19.8657H18.3945L23.5693 28.4116H33.4746V33.1597H20.6348L12.4766 19.8657H12.4756L9.56348 15.1177H24.1562V15.1167C24.1745 15.1174 24.1928 15.1171 24.2109 15.1177H24.7822C26.5164 15.0611 27.6661 14.4623 28.3965 13.7358C29.2424 12.8942 29.7032 11.7078 29.7051 10.4565C29.7068 9.20495 29.2484 7.99215 28.3896 7.11377C27.6157 6.32233 26.3909 5.67473 24.542 5.62158H3.73535L0.822266 0.874512H24.0596V0.871582C24.2625 0.868103 24.463 0.86902 24.6611 0.874512Z" fill="url(#paint0_linear_377_38)"/>
<path d="M24.6611 0.874512H24.9287V0.887207C27.7803 1.02532 30.1201 2.09147 31.7852 3.79443C33.586 5.6365 34.4563 8.07694 34.4531 10.4624C34.4498 12.8479 33.572 15.2841 31.7461 17.1011C30.0757 18.7629 27.7466 19.7693 24.9287 19.8608V19.8657H24.7754C24.5982 19.8694 24.4192 19.8694 24.2383 19.8657H18.3945L23.5693 28.4116H33.4746V33.1597H20.6348L12.4766 19.8657H12.4756L9.56348 15.1177H24.1562V15.1167C24.1745 15.1174 24.1928 15.1171 24.2109 15.1177H24.7822C26.5164 15.0611 27.6661 14.4623 28.3965 13.7358C29.2424 12.8942 29.7032 11.7078 29.7051 10.4565C29.7068 9.20495 29.2484 7.99215 28.3896 7.11377C27.6157 6.32233 26.3909 5.67473 24.542 5.62158H3.73535L0.822266 0.874512H24.0596V0.871582C24.2625 0.868103 24.463 0.86902 24.6611 0.874512Z" fill="url(#paint1_linear_377_38)"/>
<path d="M1.19062 15.534L1.19063 15.1195L5.93883 15.1195L17.0089 33.1571L12.2727 33.159L1.19062 15.534Z" fill="#123458"/>
<path d="M1.19033 28.6487L1.19106 20.8128L8.7753 33.1574L4.03918 33.1593L1.19033 28.6487Z" fill="#4B7DAA"/>
</g>
</g>
<defs>
<linearGradient id="paint0_linear_377_38" x1="17.9925" y1="15.5705" x2="8.97626" y2="21.2106" gradientUnits="userSpaceOnUse">
<stop stop-color="#030303"/>
<stop offset="1" stop-color="#123458"/>
</linearGradient>
<linearGradient id="paint1_linear_377_38" x1="17.9925" y1="15.5705" x2="8.97626" y2="21.2106" gradientUnits="userSpaceOnUse">
<stop stop-color="#030303"/>
<stop offset="1" stop-color="#123458"/>
</linearGradient>
<clipPath id="clip0_377_38">
<rect width="35" height="34" fill="white"/>
</clipPath>
<clipPath id="clip1_377_38">
<rect width="35.1121" height="34" fill="white"/>
</clipPath>
</defs>
</svg>
