<svg width="50" height="50" viewBox="0 0 50 50" fill="none" xmlns="http://www.w3.org/2000/svg">
<rect width="50" height="50" rx="10" fill="#F1EFEC"/>
<g clip-path="url(#clip0_4_4)">
<g clip-path="url(#clip1_4_4)">
<path d="M32.0801 8.46591H32.5586V8.48056C35.4829 8.62182 37.8824 9.71376 39.5898 11.4601C41.4362 13.3487 42.3285 15.8512 42.3252 18.297C42.3218 20.7427 41.4218 23.2407 39.5498 25.1036C37.8368 26.8079 35.4485 27.8403 32.5586 27.9337V27.9376H32.417C32.2311 27.9416 32.0434 27.9414 31.8535 27.9376H25.8594L31.166 36.7003H41.3213V41.5685H28.1553L19.792 27.9376H19.791L16.8057 23.0704H31.7676V23.0684C31.8003 23.0698 31.8329 23.0694 31.8652 23.0704H32.3848C34.1771 23.0174 35.3639 22.4009 36.1162 21.6524C36.9832 20.7894 37.4552 19.5729 37.457 18.2901C37.4587 17.0071 36.9886 15.7638 36.1084 14.8634C35.3148 14.0518 34.0584 13.3883 32.1621 13.3341H10.8301L7.84277 8.46591H31.6689V8.46396C31.8071 8.46159 31.9441 8.46421 32.0801 8.46591Z" fill="url(#paint0_linear_4_4)"/>
<path d="M32.0801 8.46591H32.5586V8.48056C35.4829 8.62182 37.8824 9.71376 39.5898 11.4601C41.4362 13.3487 42.3285 15.8512 42.3252 18.297C42.3218 20.7427 41.4218 23.2407 39.5498 25.1036C37.8368 26.8079 35.4485 27.8403 32.5586 27.9337V27.9376H32.417C32.2311 27.9416 32.0434 27.9414 31.8535 27.9376H25.8594L31.166 36.7003H41.3213V41.5685H28.1553L19.792 27.9376H19.791L16.8057 23.0704H31.7676V23.0684C31.8003 23.0698 31.8329 23.0694 31.8652 23.0704H32.3848C34.1771 23.0174 35.3639 22.4009 36.1162 21.6524C36.9832 20.7894 37.4552 19.5729 37.457 18.2901C37.4587 17.0071 36.9886 15.7638 36.1084 14.8634C35.3148 14.0518 34.0584 13.3883 32.1621 13.3341H10.8301L7.84277 8.46591H31.6689V8.46396C31.8071 8.46159 31.9441 8.46421 32.0801 8.46591Z" fill="url(#paint1_linear_4_4)"/>
<path d="M8.21873 23.497L8.21873 23.0721L13.087 23.0721L24.437 41.5658L19.5811 41.5677L8.21873 23.497Z" fill="#123458"/>
<path d="M8.21908 36.9432L8.21983 28.9092L15.9958 41.566L11.14 41.5679L8.21908 36.9432Z" fill="#4B7DAA"/>
</g>
</g>
<defs>
<linearGradient id="paint0_linear_4_4" x1="25.4478" y1="23.5351" x2="16.2036" y2="29.3181" gradientUnits="userSpaceOnUse">
<stop stop-color="#030303"/>
<stop offset="1" stop-color="#123458"/>
</linearGradient>
<linearGradient id="paint1_linear_4_4" x1="25.4478" y1="23.5351" x2="16.2036" y2="29.3181" gradientUnits="userSpaceOnUse">
<stop stop-color="#030303"/>
<stop offset="1" stop-color="#123458"/>
</linearGradient>
<clipPath id="clip0_4_4">
<rect width="36" height="34.8597" fill="white" transform="translate(7 7.57019)"/>
</clipPath>
<clipPath id="clip1_4_4">
<rect width="36" height="34.8597" fill="white" transform="translate(7 7.57019)"/>
</clipPath>
</defs>
</svg>
